<svg width="456" height="501" viewBox="0 0 456 501" fill="none" xmlns="http://www.w3.org/2000/svg">
<g clip-path="url(#clip0_188_3)">
<path d="M19 13V20H26.5H34V13V6H26.5H19V13Z" fill="#404096"/>
<path d="M35 13V20H42.5H50V13V6H42.5H35V13Z" fill="#404096"/>
<path d="M51 13V20H58H65V13V6H58H51V13Z" fill="#404096"/>
<path d="M66 13V20H73.5H81V13V6H73.5H66V13Z" fill="#404096"/>
<path d="M82 13V20H89H96V13V6H89H82V13Z" fill="#404096"/>
<path d="M97 13V20H104.5H112V13V6H104.5H97V13Z" fill="#404096"/>
<path d="M113 13V20H120H127V13V6H120H113V13Z" fill="#404096"/>
<path d="M128 13V20H135.5H143V13V6H135.5H128V13Z" fill="#404096"/>
<path d="M144 13V20H151.5H159V13V6H151.5H144V13Z" fill="#404096"/>
<path d="M160 13V20H167H174V13V6H167H160V13Z" fill="#404096"/>
<path d="M175 13V20H182.5H190V13V6H182.5H175V13Z" fill="#404096"/>
<path d="M191 13V20H198H205V13V6H198H191V13Z" fill="#404096"/>
<path d="M206 13V20H209.5H213V13V6H209.5H206V13Z" fill="#404096"/>
<path d="M13.5 8.8C11.9 9.9 9.9 11.4 9.1 12.3C8.4 13.2 7.4 13.7 6.9 13.4C6.4 13.1 6.3 13.7 6.7 14.6C7 15.6 6.9 16.1 6.4 15.8C5.9 15.4 5.4 16.3 5.4 17.6C5.2 19.9 5.5 20 11.6 20H18V13.5C18 9.9 17.7 7 17.3 7C16.8 7 15.2 7.8 13.5 8.8Z" fill="#404096"/>
<path d="M4.7 21.7C4.3 22 4 25.4 4 29.2V36H11H18V28.5V21H11.7C8.2 21 5 21.3 4.7 21.7Z" fill="#404096"/>
<path d="M19 28.5V36H26.5H34V28.5V21H26.5H19V28.5Z" fill="#404096"/>
<path d="M35 28.5V36H42.5H50V28.5V21H42.5H35V28.5Z" fill="#404096"/>
<path d="M51 28.5V36H58H65V28.5V21H58H51V28.5Z" fill="#404096"/>
<path d="M66 28.5V36H73.5H81V28.5V21H73.5H66V28.5Z" fill="#404096"/>
<path d="M82 28.5V36H89H96V28.5V21H89H82V28.5Z" fill="#404096"/>
<path d="M97 28.5V36H104.5H112V28.5V21H104.5H97V28.5Z" fill="#404096"/>
<path d="M113 28.5V36H120H127V28.5V21H120H113V28.5Z" fill="#404096"/>
<path d="M128 28.5V36H135.5H143V28.5V21H135.5H128V28.5Z" fill="#404096"/>
<path d="M144 28.5V36H151.5H159V28.5V21H151.5H144V28.5Z" fill="#404096"/>
<path d="M160 28.5V36H167H174V28.5V21H167H160V28.5Z" fill="#404096"/>
<path d="M175 28.5V36H182.5H190V28.5V21H182.5H175V28.5Z" fill="#404096"/>
<path d="M191 28.5V36H198H205V28.5V21H198H191V28.5Z" fill="#404096"/>
<path d="M206 28.5V36H209.5H213V28.5V21H209.5H206V28.5Z" fill="#404096"/>
<path d="M4 44V51H11H18V44V37H11H4V44Z" fill="#404096"/>
<path d="M19 44V51H26.5H34V44V37H26.5H19V44Z" fill="#404096"/>
<path d="M35 44V51H42.5H50V44V37H42.5H35V44Z" fill="#404096"/>
<path d="M51 44V51H58H65V44V37H58H51V44Z" fill="#404096"/>
<path d="M66 44V51H73.5H81V44V37H73.5H66V44Z" fill="#404096"/>
<path d="M82 44V51H89H96V44V37H89H82V44Z" fill="#404096"/>
<path d="M97 44V51H104.5H112V44V37H104.5H97V44Z" fill="#404096"/>
<path d="M113 44V51H120H127V44V37H120H113V44Z" fill="#404096"/>
<path d="M128 44V51H135.5H143V44V37H135.5H128V44Z" fill="#404096"/>
<path d="M144 44V51H151.5H159V44V37H151.5H144V44Z" fill="#404096"/>
<path d="M160 44V51H167H174V44V37H167H160V44Z" fill="#404096"/>
<path d="M175 44V51H182.5H190V44V37H182.5H175V44Z" fill="#404096"/>
<path d="M191 44V51H198H205V44V37H198H191V44Z" fill="#404096"/>
<path d="M206 44V51H209.5H213V44V37H209.5H206V44Z" fill="#404096"/>
<path d="M4 59.5V67H11H18V59.5V52H11H4V59.5Z" fill="#404096"/>
<path d="M19 59.5V67H26.5H34V59.5V52H26.5H19V59.5Z" fill="#404096"/>
<path d="M35 59.5V67H42.5H50V59.5V52H42.5H35V59.5Z" fill="#404096"/>
<path d="M51 59.5V67H58H65V59.5V52H58H51V59.5Z" fill="#404096"/>
<path d="M66 59.5V67H73.5H81V59.5V52H73.5H66V59.5Z" fill="#404096"/>
<path d="M82 59.5V67H89H96V59.5V52H89H82V59.5Z" fill="#404096"/>
<path d="M97 59.5V67H104.5H112V59.5V52H104.5H97V59.5Z" fill="#404096"/>
<path d="M113 59.5V67H120H127V59.5V52H120H113V59.5Z" fill="#404096"/>
<path d="M128 59.5V67H135.5H143V59.5V52H135.5H128V59.5Z" fill="#404096"/>
<path d="M144 59.5V67H151.5H159V59.5V52H151.5H144V59.5Z" fill="#404096"/>
<path d="M160 59.5V67H167H174V59.5V52H167H160V59.5Z" fill="#404096"/>
<path d="M175 59.5V67H182.5H190V59.5V52H182.5H175V59.5Z" fill="#404096"/>
<path d="M191 59.5V67H198H205V59.5V52H198H191V59.5Z" fill="#404096"/>
<path d="M206 59.5V67H209.5H213V59.5V52H209.5H206V59.5Z" fill="#404096"/>
<path d="M4 75V82H11H18V75V68H11H4V75Z" fill="#404096"/>
<path d="M19 75V82H26.5H34V75V68H26.5H19V75Z" fill="#404096"/>
<path d="M35 75V82H42.5H50V75V68H42.5H35V75Z" fill="#404096"/>
<path d="M51 75V82H58H65V75V68H58H51V75Z" fill="#404096"/>
<path d="M66 75V82H73.5H81V75V68H73.5H66V75Z" fill="#404096"/>
<path d="M82 75V82H89H96V75V68H89H82V75Z" fill="#404096"/>
<path d="M97 75V82H104.5H112V75V68H104.5H97V75Z" fill="#404096"/>
<path d="M113 75V82H120H127V75V68H120H113V75Z" fill="#404096"/>
<path d="M128 75V82H135.5H143V75V68H135.5H128V75Z" fill="#404096"/>
<path d="M144 75V82H151.5H159V75V68H151.5H144V75Z" fill="#404096"/>
<path d="M160 75V82H167H174V75V68H167H160V75Z" fill="#404096"/>
<path d="M175 75V82H182.5H190V75V68H182.5H175V75Z" fill="#404096"/>
<path d="M191 75V82H198H205V75V68H198H191V75Z" fill="#404096"/>
<path d="M206 75V82H209.5H213V75V68H209.5H206V75Z" fill="#404096"/>
<path d="M4 90.5V98H11H18V90.5V83H11H4V90.5Z" fill="#404096"/>
<path d="M19 90.5V98H26.5H34V90.5V83H26.5H19V90.5Z" fill="#404096"/>
<path d="M35 90.5V98H42.5H50V90.5V83H42.5H35V90.5Z" fill="#404096"/>
<path d="M51 90.5V98H58H65V90.5V83H58H51V90.5Z" fill="#404096"/>
<path d="M66 90.5V98H73.5H81V90.5V83H73.5H66V90.5Z" fill="#404096"/>
<path d="M82 90.5V98H89H96V90.5V83H89H82V90.5Z" fill="#404096"/>
<path d="M97 90.5V98H104.5H112V90.5V83H104.5H97V90.5Z" fill="#404096"/>
<path d="M113 90.5V98H120H127V90.5V83H120H113V90.5Z" fill="#404096"/>
<path d="M128 90.5V98H135.5H143V90.5V83H135.5H128V90.5Z" fill="#404096"/>
<path d="M144 90.5V98H151.5H159V90.5V83H151.5H144V90.5Z" fill="#404096"/>
<path d="M160 90.5V98H167H174V90.5V83H167H160V90.5Z" fill="#404096"/>
<path d="M175 90.5V98H182.5H190V90.5V83H182.5H175V90.5Z" fill="#404096"/>
<path d="M191 90.5V98H198H205V90.5V83H198H191V90.5Z" fill="#404096"/>
<path d="M206 90.5V98H209.5H213V90.5V83H209.5H206V90.5Z" fill="#404096"/>
<path d="M4 106.5V114H11H18V106.5V99H11H4V106.5Z" fill="#404096"/>
<path d="M19 106.5V114H26.5H34V106.5V99H26.5H19V106.5Z" fill="#404096"/>
<path d="M35 106.5V114H42.5H50V106.5V99H42.5H35V106.5Z" fill="#404096"/>
<path d="M51 106.5V114H58H65V106.5V99H58H51V106.5Z" fill="#404096"/>
<path d="M66 106.5V114H73.5H81V106.5V99H73.5H66V106.5Z" fill="#404096"/>
<path d="M82 106.5V114H89H96V106.5V99H89H82V106.5Z" fill="#404096"/>
<path d="M97 106.5V114H104.5H112V106.5V99H104.5H97V106.5Z" fill="#404096"/>
<path d="M113 106.5V114H120H127V106.5V99H120H113V106.5Z" fill="#404096"/>
<path d="M128 106.5V114H135.5H143V106.5V99H135.5H128V106.5Z" fill="#404096"/>
<path d="M144 106.5V114H151.5H159V106.5V99H151.5H144V106.5Z" fill="#404096"/>
<path d="M160 106.5V114H167H174V106.5V99H167H160V106.5Z" fill="#404096"/>
<path d="M175 106.5V114H182.5H190V106.5V99H182.5H175V106.5Z" fill="#404096"/>
<path d="M191 106.5V114H198H205V106.5V99H198H191V106.5Z" fill="#404096"/>
<path d="M206 106.5V114H209.5H213V106.5V99H209.5H206V106.5Z" fill="#404096"/>
<path d="M4 122V129H11H18V122V115H11H4V122Z" fill="#404096"/>
<path d="M19 122V129H26.5H34V122V115H26.5H19V122Z" fill="#404096"/>
<path d="M35 122V129H42.5H50V122V115H42.5H35V122Z" fill="#404096"/>
<path d="M51 122V129H58H65V122V115H58H51V122Z" fill="#404096"/>
<path d="M66 122V129H73.5H81V122V115H73.5H66V122Z" fill="#404096"/>
<path d="M82 122V129H89H96V122V115H89H82V122Z" fill="#404096"/>
<path d="M97 122V129H104.5H112V122V115H104.5H97V122Z" fill="#404096"/>
<path d="M113 122V129H120H127V122V115H120H113V122Z" fill="#404096"/>
<path d="M128 122V129H135.5H143V122V115H135.5H128V122Z" fill="#404096"/>
<path d="M144 122V129H151.5H159V122V115H151.5H144V122Z" fill="#404096"/>
<path d="M160 122V129H167H174V122V115H167H160V122Z" fill="#404096"/>
<path d="M175 122V129H182.5H190V122V115H182.5H175V122Z" fill="#404096"/>
<path d="M191 122V129H198H205V122V115H198H191V122Z" fill="#404096"/>
<path d="M206 122V129H209.5H213V122V115H209.5H206V122Z" fill="#404096"/>
<path d="M4 137.5V145H11H18V137.5V130H11H4V137.5Z" fill="#404096"/>
<path d="M19 137.5V145H26.5H34V137.5V130H26.5H19V137.5Z" fill="#404096"/>
<path d="M35 137.5V145H42.5H50V137.5V130H42.5H35V137.5Z" fill="#404096"/>
<path d="M51 137.5V145H58H65V137.5V130H58H51V137.5Z" fill="#404096"/>
<path d="M66 137.5V145H73.5H81V137.5V130H73.5H66V137.5Z" fill="#404096"/>
<path d="M82 137.5V145H89H96V137.5V130H89H82V137.5Z" fill="#404096"/>
<path d="M97 137.5V145H104.5H112V137.5V130H104.5H97V137.5Z" fill="#404096"/>
<path d="M113 137.5V145H120H127V137.5V130H120H113V137.5Z" fill="#404096"/>
<path d="M128 137.5V145H135.5H143V137.5V130H135.5H128V137.5Z" fill="#404096"/>
<path d="M144 137.5V145H151.5H159V137.5V130H151.5H144V137.5Z" fill="#404096"/>
<path d="M160 137.5V145H167H174V137.5V130H167H160V137.5Z" fill="#404096"/>
<path d="M175 137.5V145H182.5H190V137.5V130H182.5H175V137.5Z" fill="#404096"/>
<path d="M191 137.5V145H198H205V137.5V130H198H191V137.5Z" fill="#404096"/>
<path d="M206 137.5V145H209.5H213V137.5V130H209.5H206V137.5Z" fill="#404096"/>
<path d="M4 153V160H11H18V153V146H11H4V153Z" fill="#404096"/>
<path d="M19 153V160H26.5H34V153V146H26.5H19V153Z" fill="#404096"/>
<path d="M35 153V160H42.5H50V153V146H42.5H35V153Z" fill="#404096"/>
<path d="M51 153V160H58H65V153V146H58H51V153Z" fill="#404096"/>
<path d="M66 153V160H73.5H81V153V146H73.5H66V153Z" fill="#404096"/>
<path d="M82 153V160H89H96V153V146H89H82V153Z" fill="#404096"/>
<path d="M97 153V160H104.5H112V153V146H104.5H97V153Z" fill="#404096"/>
<path d="M113 153V160H120H127V153V146H120H113V153Z" fill="#404096"/>
<path d="M128 153V160H135.5H143V153V146H135.5H128V153Z" fill="#404096"/>
<path d="M144 153V160H151.5H159V153V146H151.5H144V153Z" fill="#404096"/>
<path d="M160 153V160H167H174V153V146H167H160V153Z" fill="#404096"/>
<path d="M175 153V160H182.5H190V153V146H182.5H175V153Z" fill="#404096"/>
<path d="M191 153V160H198H205V153V146H198H191V153Z" fill="#404096"/>
<path d="M206 153V160H209.5H213V153V146H209.5H206V153Z" fill="#404096"/>
<path d="M4 168.5V176H11H18V168.5V161H11H4V168.5Z" fill="#404096"/>
<path d="M19 168.5V176H26.5H34V168.5V161H26.5H19V168.5Z" fill="#404096"/>
<path d="M35 168.5V176H42.5H50V168.5V161H42.5H35V168.5Z" fill="#404096"/>
<path d="M51 168.5V176H58H65V168.5V161H58H51V168.5Z" fill="#404096"/>
<path d="M66 168.5V176H73.5H81V168.5V161H73.5H66V168.5Z" fill="#404096"/>
<path d="M82 168.5V176H89H96V168.5V161H89H82V168.5Z" fill="#404096"/>
<path d="M97 168.5V176H104.5H112V168.5V161H104.5H97V168.5Z" fill="#404096"/>
<path d="M113 168.5V176H120H127V168.5V161H120H113V168.5Z" fill="#404096"/>
<path d="M128 168.5V176H135.5H143V168.5V161H135.5H128V168.5Z" fill="#404096"/>
<path d="M144 168.5V176H151.5H159V168.5V161H151.5H144V168.5Z" fill="#404096"/>
<path d="M160 168.5V176H167H174V168.5V161H167H160V168.5Z" fill="#404096"/>
<path d="M175 168.5V176H182.5H190V168.5V161H182.5H175V168.5Z" fill="#404096"/>
<path d="M191 168.5V176H198H205V168.5V161H198H191V168.5Z" fill="#404096"/>
<path d="M206 168.5V176H209.5H213V168.5V161H209.5H206V168.5Z" fill="#404096"/>
<path d="M4 184V191H11H18V184V177H11H4V184Z" fill="#404096"/>
<path d="M19 184V191H26.5H34V184V177H26.5H19V184Z" fill="#404096"/>
<path d="M35 184V191H42.5H50V184V177H42.5H35V184Z" fill="#404096"/>
<path d="M51 184V191H58H65V184V177H58H51V184Z" fill="#404096"/>
<path d="M66 184V191H73.5H81V184V177H73.5H66V184Z" fill="#404096"/>
<path d="M82 184V191H89H96V184V177H89H82V184Z" fill="#404096"/>
<path d="M97 184V191H104.5H112V184V177H104.5H97V184Z" fill="#404096"/>
<path d="M113 184V191H120H127V184V177H120H113V184Z" fill="#404096"/>
<path d="M128 184V191H135.5H143V184V177H135.5H128V184Z" fill="#404096"/>
<path d="M144 184V191H151.5H159V184V177H151.5H144V184Z" fill="#404096"/>
<path d="M160 184V191H167H174V184V177H167H160V184Z" fill="#404096"/>
<path d="M175 184V191H182.5H190V184V177H182.5H175V184Z" fill="#404096"/>
<path d="M191 184V191H198H205V184V177H198H191V184Z" fill="#404096"/>
<path d="M206 184V191H209.5H213V184V177H209.5H206V184Z" fill="#404096"/>
<path d="M4 199.5V207H11H18V199.5V192H11H4V199.5Z" fill="#404096"/>
<path d="M19 199.5V207H26.5H34V199.5V192H26.5H19V199.5Z" fill="#404096"/>
<path d="M35 199.5V207H42.5H50V199.5V192H42.5H35V199.5Z" fill="#404096"/>
<path d="M51 199.5V207H58H65V199.5V192H58H51V199.5Z" fill="#404096"/>
<path d="M66 199.5V207H73.5H81V199.5V192H73.5H66V199.5Z" fill="#404096"/>
<path d="M82 199.5V207H89H96V199.5V192H89H82V199.5Z" fill="#404096"/>
<path d="M97 199.5V207H104.5H112V199.5V192H104.5H97V199.5Z" fill="#404096"/>
<path d="M113 199.5V207H120H127V199.5V192H120H113V199.5Z" fill="#404096"/>
<path d="M128 199.5V207H135.5H143V199.5V192H135.5H128V199.5Z" fill="#404096"/>
<path d="M144 199.5V207H151.5H159V199.5V192H151.5H144V199.5Z" fill="#404096"/>
<path d="M160 199.5V207H167H174V199.5V192H167H160V199.5Z" fill="#404096"/>
<path d="M175 199.5V207H182.5H190V199.5V192H182.5H175V199.5Z" fill="#404096"/>
<path d="M191 199.5V207H198H205V199.5V192H198H191V199.5Z" fill="#404096"/>
<path d="M206 199.5V207H209.5H213V199.5V192H209.5H206V199.5Z" fill="#404096"/>
<path d="M4 215.5V223H11H18V215.5V208H11H4V215.5Z" fill="#404096"/>
<path d="M19 215.5V223H26.5H34V215.5V208H26.5H19V215.5Z" fill="#404096"/>
<path d="M35 215.5V223H42.5H50V215.5V208H42.5H35V215.5Z" fill="#404096"/>
<path d="M51 215.5V223H58H65V215.5V208H58H51V215.5Z" fill="#404096"/>
<path d="M66 215.5V223H73.5H81V215.5V208H73.5H66V215.5Z" fill="#404096"/>
<path d="M82 215.5V223H89H96V215.5V208H89H82V215.5Z" fill="#404096"/>
<path d="M97 215.5V223H104.5H112V215.5V208H104.5H97V215.5Z" fill="#404096"/>
<path d="M113 215.5V223H120H127V215.5V208H120H113V215.5Z" fill="#404096"/>
<path d="M128 215.5V223H135.5H143V215.5V208H135.5H128V215.5Z" fill="#404096"/>
<path d="M144 215.5V223H151.5H159V215.5V208H151.5H144V215.5Z" fill="#404096"/>
<path d="M160 215.5V223H167H174V215.5V208H167H160V215.5Z" fill="#404096"/>
<path d="M175 215.5V223H182.5H190V215.5V208H182.5H175V215.5Z" fill="#404096"/>
<path d="M191 215.5V223H198H205V215.5V208H198H191V215.5Z" fill="#404096"/>
<path d="M206 215.5V223H209.5H213V215.5V208H209.5H206V215.5Z" fill="#404096"/>
<path d="M4 231V238H11H18V231V224H11H4V231Z" fill="#404096"/>
<path d="M19 231V238H26.5H34V231V224H26.5H19V231Z" fill="#404096"/>
<path d="M35 231V238H42.5H50V231V224H42.5H35V231Z" fill="#404096"/>
<path d="M51 231V238H58H65V231V224H58H51V231Z" fill="#404096"/>
<path d="M66 231V238H73.5H81V231V224H73.5H66V231Z" fill="#404096"/>
<path d="M82 231V238H89H96V231V224H89H82V231Z" fill="#404096"/>
<path d="M97 231V238H104.5H112V231V224H104.5H97V231Z" fill="#404096"/>
<path d="M113 231V238H120H127V231V224H120H113V231Z" fill="#404096"/>
<path d="M128 231V238H135.5H143V231V224H135.5H128V231Z" fill="#404096"/>
<path d="M144 231V238H151.5H159V231V224H151.5H144V231Z" fill="#404096"/>
<path d="M160 231V238H167H174V231V224H167H160V231Z" fill="#404096"/>
<path d="M175 231V238H182.5H190V231V224H182.5H175V231Z" fill="#404096"/>
<path d="M191 231V238H198H205V231V224H198H191V231Z" fill="#404096"/>
<path d="M206 231V238H209.5H213V231V224H209.5H206V231Z" fill="#404096"/>
<path d="M4 246.5V254H11H18V246.5V239H11H4V246.5Z" fill="#404096"/>
<path d="M19 246.5V254H26.5H34V246.5V239H26.5H19V246.5Z" fill="#404096"/>
<path d="M35 246.5V254H42.5H50V246.5V239H42.5H35V246.5Z" fill="#404096"/>
<path d="M51 246.5V254H58H65V246.5V239H58H51V246.5Z" fill="#404096"/>
<path d="M66 246.5V254H73.5H81V246.5V239H73.5H66V246.5Z" fill="#404096"/>
<path d="M82 246.5V254H89H96V246.5V239H89H82V246.5Z" fill="#404096"/>
<path d="M97 246.5V254H104.5H112V246.5V239H104.5H97V246.5Z" fill="#404096"/>
<path d="M113 246.5V254H120H127V246.5V239H120H113V246.5Z" fill="#404096"/>
<path d="M128 246.5V254H135.5H143V246.5V239H135.5H128V246.5Z" fill="#404096"/>
<path d="M144 246.5V254H151.5H159V246.5V239H151.5H144V246.5Z" fill="#404096"/>
<path d="M160 246.5V254H167H174V246.5V239H167H160V246.5Z" fill="#404096"/>
<path d="M175 246.5V254H182.5H190V246.5V239H182.5H175V246.5Z" fill="#404096"/>
<path d="M191 246.5V254H198H205V246.5V239H198H191V246.5Z" fill="#404096"/>
<path d="M206 246.5V254H209.5H213V246.5V239H209.5H206V246.5Z" fill="#404096"/>
<path d="M4 262V269H11H18V262V255H11H4V262Z" fill="#404096"/>
<path d="M19 262V269H26.5H34V262V255H26.5H19V262Z" fill="#404096"/>
<path d="M35 262V269H42.5H50V262V255H42.5H35V262Z" fill="#404096"/>
<path d="M51 262V269H58H65V262V255H58H51V262Z" fill="#404096"/>
<path d="M66 262V269H73.5H81V262V255H73.5H66V262Z" fill="#404096"/>
<path d="M82 262V269H89H96V262V255H89H82V262Z" fill="#404096"/>
<path d="M97 262V269H104.5H112V262V255H104.5H97V262Z" fill="#404096"/>
<path d="M113 262V269H120H127V262V255H120H113V262Z" fill="#404096"/>
<path d="M128 262V269H135.5H143V262V255H135.5H128V262Z" fill="#404096"/>
<path d="M144 262V269H151.5H159V262V255H151.5H144V262Z" fill="#404096"/>
<path d="M160 262V269H167H174V262V255H167H160V262Z" fill="#404096"/>
<path d="M175 262V269H182.5H190V262V255H182.5H175V262Z" fill="#404096"/>
<path d="M191 262V269H198H205V262V255H198H191V262Z" fill="#404096"/>
<path d="M206 262V269H209.5H213V262V255H209.5H206V262Z" fill="#404096"/>
<path d="M4 277.5V285H11H18V277.5V270H11H4V277.5Z" fill="#404096"/>
<path d="M19 277.5V285H26.5H34V277.5V270H26.5H19V277.5Z" fill="#404096"/>
<path d="M35 277.5V285H42.5H50V277.5V270H42.5H35V277.5Z" fill="#404096"/>
<path d="M51 277.5V285H58H65V277.5V270H58H51V277.5Z" fill="#404096"/>
<path d="M66 277.5V285H73.5H81V277.5V270H73.5H66V277.5Z" fill="#404096"/>
<path d="M82 277.5V285H89H96V277.5V270H89H82V277.5Z" fill="#404096"/>
<path d="M97 277.5V285H104.5H112V277.5V270H104.5H97V277.5Z" fill="#404096"/>
<path d="M113 277.5V285H120H127V277.5V270H120H113V277.5Z" fill="#404096"/>
<path d="M128 277.5V285H135.5H143V277.5V270H135.5H128V277.5Z" fill="#404096"/>
<path d="M144 277.5V285H151.5H159V277.5V270H151.5H144V277.5Z" fill="#404096"/>
<path d="M160 277.5V285H167H174V277.5V270H167H160V277.5Z" fill="#404096"/>
<path d="M175 277.5V285H182.5H190V277.5V270H182.5H175V277.5Z" fill="#404096"/>
<path d="M191 277.5V285H198H205V277.5V270H198H191V277.5Z" fill="#404096"/>
<path d="M206 277.5V285H209.5H213V277.5V270H209.5H206V277.5Z" fill="#404096"/>
<path d="M4 293V300H11H18V293V286H11H4V293Z" fill="#404096"/>
<path d="M19 293V300H26.5H34V293V286H26.5H19V293Z" fill="#404096"/>
<path d="M35 293V300H42.5H50V293V286H42.5H35V293Z" fill="#404096"/>
<path d="M51 293V300H58H65V293V286H58H51V293Z" fill="#404096"/>
<path d="M66 293V300H73.5H81V293V286H73.5H66V293Z" fill="#404096"/>
<path d="M82 293V300H89H96V293V286H89H82V293Z" fill="#404096"/>
<path d="M97 293V300H104.5H112V293V286H104.5H97V293Z" fill="#404096"/>
<path d="M113 293V300H120H127V293V286H120H113V293Z" fill="#404096"/>
<path d="M128 293V300H135.5H143V293V286H135.5H128V293Z" fill="#404096"/>
<path d="M144 293V300H151.5H159V293V286H151.5H144V293Z" fill="#404096"/>
<path d="M160 293V300H167H174V293V286H167H160V293Z" fill="#404096"/>
<path d="M175 293V300H182.5H190V293V286H182.5H175V293Z" fill="#404096"/>
<path d="M191 293V300H198H205V293V286H198H191V293Z" fill="#404096"/>
<path d="M206 293V300H209.5H213V293V286H209.5H206V293Z" fill="#404096"/>
<path d="M4 308.5V316H11H18V308.5V301H11H4V308.5Z" fill="#404096"/>
<path d="M19 308.5V316H26.5H34V308.5V301H26.5H19V308.5Z" fill="#404096"/>
<path d="M35 308.5V316H42.5H50V308.5V301H42.5H35V308.5Z" fill="#404096"/>
<path d="M51 308.5V316H58H65V308.5V301H58H51V308.5Z" fill="#404096"/>
<path d="M66 308.5V316H73.5H81V308.5V301H73.5H66V308.5Z" fill="#404096"/>
<path d="M82 308.5V316H89H96V308.5V301H89H82V308.5Z" fill="#404096"/>
<path d="M97 308.5V316H104.5H112V308.5V301H104.5H97V308.5Z" fill="#404096"/>
<path d="M113 308.5V316H120H127V308.5V301H120H113V308.5Z" fill="#404096"/>
<path d="M128 308.5V316H135.5H143V308.5V301H135.5H128V308.5Z" fill="#404096"/>
<path d="M144 308.5V316H151.5H159V308.5V301H151.5H144V308.5Z" fill="#404096"/>
<path d="M160 308.5V316H167H174V308.5V301H167H160V308.5Z" fill="#404096"/>
<path d="M175 308.5V316H182.5H190V308.5V301H182.5H175V308.5Z" fill="#404096"/>
<path d="M191 308.5V316H198H205V308.5V301H198H191V308.5Z" fill="#404096"/>
<path d="M206 308.5V316H209.5H213V308.5V301H209.5H206V308.5Z" fill="#404096"/>
<path d="M4 324.5V332H11H18V324.5V317H11H4V324.5Z" fill="#404096"/>
<path d="M19 324.5V332H26.5H34V324.5V317H26.5H19V324.5Z" fill="#404096"/>
<path d="M35 324.5V332H42.5H50V324.5V317H42.5H35V324.5Z" fill="#404096"/>
<path d="M51 324.5V332H58H65V324.5V317H58H51V324.5Z" fill="#404096"/>
<path d="M66 324.5V332H73.5H81V324.5V317H73.5H66V324.5Z" fill="#404096"/>
<path d="M82 324.5V332H89H96V324.5V317H89H82V324.5Z" fill="#404096"/>
<path d="M97 324.5V332H104.5H112V324.5V317H104.5H97V324.5Z" fill="#404096"/>
<path d="M113 324.5V332H120H127V324.5V317H120H113V324.5Z" fill="#404096"/>
<path d="M128 324.5V332H135.5H143V324.5V317H135.5H128V324.5Z" fill="#404096"/>
<path d="M144 324.5V332H151.5H159V324.5V317H151.5H144V324.5Z" fill="#404096"/>
<path d="M160 324.5V332H167H174V324.5V317H167H160V324.5Z" fill="#404096"/>
<path d="M175 324.5V332H182.5H190V324.5V317H182.5H175V324.5Z" fill="#404096"/>
<path d="M191 324.5V332H198H205V324.5V317H198H191V324.5Z" fill="#404096"/>
<path d="M206 324.5V332H209.5H213V324.5V317H209.5H206V324.5Z" fill="#404096"/>
<path d="M4 340V347H11H18V340V333H11H4V340Z" fill="#404096"/>
<path d="M19 340V347H26.5H34V340V333H26.5H19V340Z" fill="#404096"/>
<path d="M35 340V347H42.5H50V340V333H42.5H35V340Z" fill="#404096"/>
<path d="M51 340V347H58H65V340V333H58H51V340Z" fill="#404096"/>
<path d="M66 340V347H73.5H81V340V333H73.5H66V340Z" fill="#404096"/>
<path d="M82 340V347H89H96V340V333H89H82V340Z" fill="#404096"/>
<path d="M97 340V347H104.5H112V340V333H104.5H97V340Z" fill="#404096"/>
<path d="M113 340V347H120H127V340V333H120H113V340Z" fill="#404096"/>
<path d="M128 340V347H135.5H143V340V333H135.5H128V340Z" fill="#404096"/>
<path d="M144 340V347H151.5H159V340V333H151.5H144V340Z" fill="#404096"/>
<path d="M160 340V347H167H174V340V333H167H160V340Z" fill="#404096"/>
<path d="M175 340V347H182.5H190V340V333H182.5H175V340Z" fill="#404096"/>
<path d="M191 340V347H198H205V340V333H198H191V340Z" fill="#404096"/>
<path d="M206 340V347H209.5H213V340V333H209.5H206V340Z" fill="#404096"/>
<path d="M4 355.5V363H11H18V355.5V348H11H4V355.5Z" fill="#404096"/>
<path d="M19 355.5V363H26.5H34V355.5V348H26.5H19V355.5Z" fill="#404096"/>
<path d="M35 355.5V363H42.5H50V355.5V348H42.5H35V355.5Z" fill="#404096"/>
<path d="M51 355.5V363H58H65V355.5V348H58H51V355.5Z" fill="#404096"/>
<path d="M66 355.5V363H73.5H81V355.5V348H73.5H66V355.5Z" fill="#404096"/>
<path d="M82 355.5V363H89H96V355.5V348H89H82V355.5Z" fill="#404096"/>
<path d="M97 355.5V363H104.5H112V355.5V348H104.5H97V355.5Z" fill="#404096"/>
<path d="M113 355.5V363H120H127V355.5V348H120H113V355.5Z" fill="#404096"/>
<path d="M128 355.5V363H135.5H143V355.5V348H135.5H128V355.5Z" fill="#404096"/>
<path d="M144 355.5V363H151.5H159V355.5V348H151.5H144V355.5Z" fill="#404096"/>
<path d="M160 355.5V363H167H174V355.5V348H167H160V355.5Z" fill="#404096"/>
<path d="M175 355.6V363.1L180.8 362.5C190.3 361.4 190 361.7 190 354.4V348H182.5H175V355.6Z" fill="#404096"/>
<path d="M191 354.5V361H194.9C197 361 200.2 360.7 201.9 360.4C204.9 359.8 205 359.7 205 353.9V348H198H191V354.5Z" fill="#404096"/>
<path d="M206 354V360H209.5H213V354V348H209.5H206V354Z" fill="#404096"/>
<path d="M4 371V378H11H18V371V364H11H4V371Z" fill="#404096"/>
<path d="M19 371V378H26.5H34V371V364H26.5H19V371Z" fill="#404096"/>
<path d="M35 371V378H42.5H50V371V364H42.5H35V371Z" fill="#404096"/>
<path d="M51 371V378H58H65V371V364H58H51V371Z" fill="#404096"/>
<path d="M66 371V378H73.5H81V371V364H73.5H66V371Z" fill="#404096"/>
<path d="M82 371V378H89H96V371V364H89H82V371Z" fill="#404096"/>
<path d="M97 371V378H104.5H112V371V364H104.5H97V371Z" fill="#404096"/>
<path d="M113 371V378.1L119.8 377.8L126.5 377.5L126.8 370.7L127.1 364H120H113V371Z" fill="#404096"/>
<path d="M128 370C128 373.3 128.3 376 128.8 376C129.2 376 132.4 374.9 136 373.6C142.2 371.3 142.5 371.1 142.8 367.6L143.1 364H135.6H128V370Z" fill="#404096"/>
<path d="M144 367.3V370.7L151.5 368.6C161.4 365.8 161.4 364 151.5 364H144V367.3Z" fill="#404096"/>
<path d="M160 365C160 365.7 161.4 365.8 163.8 365.4C168.9 364.5 169.1 364 164.2 364C161.9 364 160 364.5 160 365Z" fill="#404096"/>
<path d="M4 386.5V394H11H18V386.5V379H11H4V386.5Z" fill="#404096"/>
<path d="M19 386.5V394H26.5H34V386.5V379H26.5H19V386.5Z" fill="#404096"/>
<path d="M35 386.5V394H42.5H50V386.5V379H42.5H35V386.5Z" fill="#404096"/>
<path d="M51 386.5V394H58H65V386.5V379H58H51V386.5Z" fill="#404096"/>
<path d="M66 386.5V394H73.5H81V386.5V379H73.5H66V386.5Z" fill="#404096"/>
<path d="M82 386.5V394.1L88.8 393.8L95.5 393.5L95.8 386.2L96.1 379H89H82V386.5Z" fill="#404096"/>
<path d="M97 385.6C97 389.2 97.3 392 97.8 391.8C98.2 391.6 101.5 389.8 105.3 387.7C110.7 384.6 112 383.3 112 381.4C112 379.1 111.8 379 104.5 379H97V385.6Z" fill="#404096"/>
<path d="M113 381C113 383.4 113.5 383.4 118 381L121.5 379.1L117.3 379C113.7 379 113 379.3 113 381Z" fill="#404096"/>
<path d="M4 402V409H11H18V402V395H11H4V402Z" fill="#404096"/>
<path d="M19 402V409H26.5H34V402V395H26.5H19V402Z" fill="#404096"/>
<path d="M35 402V409H42.5H50V402V395H42.5H35V402Z" fill="#404096"/>
<path d="M51 402V409H58H65V402V395H58H51V402Z" fill="#404096"/>
<path d="M66 402V409H70.1C73 409 75.1 408.2 77.6 406.2C80.5 403.9 81 402.9 81 399.2V395H73.5H66V402Z" fill="#404096"/>
<path d="M82 398.5C82 400.4 82.3 402 82.6 402C83.3 402 92 395.8 92 395.3C92 395.1 89.8 395 87 395H82V398.5Z" fill="#404096"/>
<path d="M4 417.5V425H11H18V417.5V410H11H4V417.5Z" fill="#404096"/>
<path d="M19 417.5V425H26.5H34V417.5V410H26.5H19V417.5Z" fill="#404096"/>
<path d="M35 417.5V425H42.5H50V417.5V410H42.5H35V417.5Z" fill="#404096"/>
<path d="M51 417.5V425H53.8C57.9 425 65 417.5 65 413.2V410H58H51V417.5Z" fill="#404096"/>
<path d="M66 412.5C66 413.9 66.4 415 66.8 415C67.3 415 68.7 413.9 70 412.5L72.3 410H69.2C66.5 410 66 410.4 66 412.5Z" fill="#404096"/>
<path d="M4 433.5V441H11H18V433.5V426H11H4V433.5Z" fill="#404096"/>
<path d="M19 433.5V441H26.5H34V433.5V426H26.5H19V433.5Z" fill="#404096"/>
<path d="M35 433.5V441H38.3C41.1 441 42.4 440.2 45.8 436.1C48.4 433.1 50 430.1 50 428.6C50 426 49.9 426 42.5 426H35V433.5Z" fill="#404096"/>
<path d="M51 428.2C51 430.2 51.1 430.3 53 428.5C54.1 427.5 55 426.5 55 426.3C55 426.2 54.1 426 53 426C51.6 426 51 426.7 51 428.2Z" fill="#404096"/>
<path d="M4 449V456H11H18V449V442H11H4V449Z" fill="#404096"/>
<path d="M19 449V456H24.4C29.3 456 30.1 455.7 31.9 453.1C33.2 451.3 34 448.6 34 446.1V442H26.5H19V449Z" fill="#404096"/>
<path d="M35 445.1C35 447.8 35.2 448.1 36.6 447C37.4 446.2 38.6 444.8 39.1 443.8C39.9 442.3 39.7 442 37.5 442C35.4 442 35 442.4 35 445.1Z" fill="#404096"/>
<path d="M4 464.5V472H11H18V464.5V457H11H4V464.5Z" fill="#404096"/>
<path d="M19 464C19 467.8 19.2 471 19.4 471C19.5 471 21.8 467.8 24.4 464L29 457H24H19V464Z" fill="#404096"/>
<path d="M4 478.2C4 482.2 3.7 483.1 2.9 482C2.1 480.9 2 481.3 2.4 483.9C2.8 485.8 3.1 487.4 3.3 487.5C3.4 487.6 5.1 487.5 7 487.3C10.1 486.9 10.9 486.1 14 480.7C15.9 477.3 17.7 474.2 17.8 473.7C18 473.3 15 473 11.1 473H4V478.2Z" fill="#404096"/>
<path d="M5 489C3.7 489.8 3.8 490 5.3 490C6.3 490 6.9 490.4 6.5 490.9C6.2 491.4 6.4 492.1 6.8 492.4C7.3 492.7 8.2 491.8 8.8 490.5C9.8 488.4 9.7 488 8.2 488C7.3 488 5.8 488.5 5 489Z" fill="#404096"/>
<path d="M28.3 5.69998L34 6.09998V13V20H26.5H19.1L18.7 13.2L18.4 6.49998L18.2 13.2L18 19.9L11.3 20.3L4.5 20.6L11.3 20.8L18 21V28.5V35.9L10.8 36.3L3.5 36.6L10.8 36.8L18 37V44V50.9L10.8 51.3L3.5 51.6L10.8 51.8L18 52V59.5V66.9L10.8 67.3L3.5 67.6L10.8 67.8L18 68V75V81.9L10.8 82.3L3.5 82.6L10.8 82.8L18 83V90.5V97.9L10.8 98.3L3.5 98.6L10.8 98.8L18 99V106.5V113.9L10.8 114.3L3.5 114.6L10.8 114.8L18 115V122V128.9L10.8 129.3L3.5 129.6L10.8 129.8L18 130V137.5V144.9L10.8 145.3L3.5 145.6L10.8 145.8L18 146V153V159.9L10.8 160.3L3.5 160.6L10.8 160.8L18 161V168.5V175.9L10.8 176.3L3.5 176.6L10.8 176.8L18 177V184V190.9L10.8 191.3L3.5 191.6L10.8 191.8L18 192V199.5V206.9L10.8 207.3L3.5 207.6L10.8 207.8L18 208V215.5V222.9L10.8 223.3L3.5 223.6L10.8 223.8L18 224V231V237.9L10.8 238.3L3.5 238.6L10.8 238.8L18 239V246.5V253.9L10.8 254.3L3.5 254.6L10.8 254.8L18 255V262V268.9L10.8 269.3L3.5 269.6L10.8 269.8L18 270V277.5V284.9L10.8 285.3L3.5 285.6L10.8 285.8L18 286V293V299.9L10.8 300.3L3.5 300.6L10.8 300.8L18 301V308.5V315.9L10.8 316.3L3.5 316.6L10.8 316.8L18 317V324.5V331.9L10.8 332.3L3.5 332.6L10.8 332.8L18 333V340V346.9L10.8 347.3L3.5 347.6L10.8 347.8L18 348V355.5V362.9L10.8 363.3L3.5 363.6L10.8 363.8L18 364V371V377.9L10.8 378.3L3.5 378.6L10.8 378.8L18 379V386.5V393.9L10.8 394.3L3.5 394.6L10.8 394.8L18 395V402V408.9L10.8 409.3L3.5 409.6L10.8 409.8L18 410V417.5V424.9L10.8 425.3L3.5 425.6L10.8 425.8L18 426V433.5V440.9L10.8 441.3L3.5 441.6L10.8 441.8L18 442V449V455.9L10.8 456.3L3.5 456.6L10.8 456.8L18 457V464.5V471.9L11.3 472.3L4.5 472.6H11.5L18.5 472.5L18.8 464.8L19.1 457.1L24.3 456.7L29.5 456.4L24.3 456.2L19 456V449V442H26.4H33.9L34.3 445.8L34.7 449.5L34.8 445.8C35 442.4 35.3 442.1 38.3 441.7L41.5 441.3L38.3 441.2L35 441V433.5V426H42.4C49.8 426 49.9 426 50.3 428.8L50.7 431.5L50.9 428.8C51 426.9 51.6 426 53.3 425.7L55.5 425.3L53.3 425.1C51.1 425 51 424.6 51 417.5V410H57.9H64.9L65.3 413.2L65.7 416.5L65.8 413.3C66 410.4 66.3 410.1 69.7 409.7L73.5 409.3L69.8 409.2L66 409V402V395H73.4H80.9L81.3 399.2L81.7 403.5L81.8 399.3L82 395.1L87.8 394.7L93.5 394.4L87.8 394.2L82 394V386.5V379H89H95.9L96.3 386.2L96.6 393.5L96.8 386.2L97 379H104.4C111.3 379 111.9 379.2 112.3 381.2L112.7 383.5L112.9 381.3C113 379.4 113.7 379.1 118.3 378.7L123.5 378.4L118.3 378.2L113 378V371V364H120H126.9L127.3 370.7L127.6 377.5L127.8 370.7L128 364H135.4H142.9L143.3 367.7L143.7 371.5L143.8 367.7L144 364H151.5C156.8 364 159 364.4 159 365.2C159 366.2 159.2 366.2 159.8 365.3C160.2 364.7 163.2 363.9 166.5 363.7L172.5 363.4L166.3 363.2L160 363V355.5V348H167H173.9L174.3 355.7L174.6 363.5L174.8 355.7L175 348H182.5H189.9L190.3 354.7L190.6 361.5L190.8 354.7L191 348H198H204.9L205.3 354.2L205.6 360.5L205.8 354.3L206 348.1L209.8 347.7L213.5 347.3L209.8 347.2L206 347V340.1V333.1L209.8 332.7L213.5 332.3L209.8 332.2L206 332V324.6V317.1L209.8 316.7L213.5 316.3L209.8 316.2L206 316V308.6V301.1L209.8 300.7L213.5 300.3L209.8 300.2L206 300V293.1V286.1L209.8 285.7L213.5 285.3L209.8 285.2L206 285V277.6V270.1L209.8 269.7L213.5 269.3L209.8 269.2L206 269V262.1V255.1L209.8 254.7L213.5 254.3L209.8 254.2L206 254V246.6V239.1L209.8 238.7L213.5 238.3L209.8 238.2L206 238V231.1V224.1L209.8 223.7L213.5 223.3L209.8 223.2L206 223V215.6V208.1L209.8 207.7L213.5 207.3L209.8 207.2L206 207V199.6V192.1L209.8 191.7L213.5 191.3L209.8 191.2L206 191V184.1V177.1L209.8 176.7L213.5 176.3L209.8 176.2L206 176V168.6V161.1L209.8 160.7L213.5 160.3L209.8 160.2L206 160V153.1V146.1L209.8 145.7L213.5 145.3L209.8 145.2L206 145V137.6V130.1L209.8 129.7L213.5 129.3L209.8 129.2L206 129V122.1V115.1L209.8 114.7L213.5 114.3L209.8 114.2L206 114V106.6V99.1L209.7 98.7L213.5 98.3L209.8 98.2L206 98V90.6V83.1L209.8 82.7L213.5 82.3L209.8 82.2L206 82V75.1V68.1L209.8 67.7L213.5 67.3L209.8 67.2L206 67V59.6V52.1L209.8 51.7L213.5 51.3L209.8 51.2L206 51V44.1V37.1L209.8 36.7L213.5 36.3L209.8 36.2L206 36V28.6V21.1L209.8 20.7L213.5 20.3L209.8 20.2L206 20V13.1V6.09998L209.8 5.69998C211.8 5.49998 170.5 5.29998 118 5.39998C65.5 5.39998 25.1 5.49998 28.3 5.69998ZM50 13V20H42.5H35V13V5.99998H42.5H50V13ZM65 13V20H58H51V13V5.99998H58H65V13ZM81 13V20H73.5H66V13V5.99998H73.5H81V13ZM96 13V20H89H82V13V5.99998H89H96V13ZM112 13V20H104.5H97V13V5.99998H104.5H112V13ZM127 13V20H120H113V13V5.99998H120H127V13ZM143 13V20H135.5H128V13V5.99998H135.5H143V13ZM159 13V20H151.5H144V13V5.99998H151.5H159V13ZM174 13V20H167H160V13V5.99998H167H174V13ZM190 13V20H182.5H175V13V5.99998H182.5H190V13ZM205 13V20H198H191V13V5.99998H198H205V13ZM34 28.5V36H26.5H19V28.5V21H26.5H34V28.5ZM50 28.5V36H42.5H35V28.5V21H42.5H50V28.5ZM65 28.5V36H58H51V28.5V21H58H65V28.5ZM81 28.5V36H73.5H66V28.5V21H73.5H81V28.5ZM96 28.5V36H89H82V28.5V21H89H96V28.5ZM112 28.5V36H104.5H97V28.5V21H104.5H112V28.5ZM127 28.5V36H120H113V28.5V21H120H127V28.5ZM143 28.5V36H135.5H128V28.5V21H135.5H143V28.5ZM159 28.5V36H151.5H144V28.5V21H151.5H159V28.5ZM174 28.5V36H167H160V28.5V21H167H174V28.5ZM190 28.5V36H182.5H175V28.5V21H182.5H190V28.5ZM205 28.5V36H198H191V28.5V21H198H205V28.5ZM34 44V51H26.5H19V44V37H26.5H34V44ZM50 44V51H42.5H35V44V37H42.5H50V44ZM65 44V51H58H51V44V37H58H65V44ZM81 44V51H73.5H66V44V37H73.5H81V44ZM96 44V51H89H82V44V37H89H96V44ZM112 44V51H104.5H97V44V37H104.5H112V44ZM127 44V51H120H113V44V37H120H127V44ZM143 44V51H135.5H128V44V37H135.5H143V44ZM159 44V51H151.5H144V44V37H151.5H159V44ZM174 44V51H167H160V44V37H167H174V44ZM190 44V51H182.5H175V44V37H182.5H190V44ZM205 44V51H198H191V44V37H198H205V44ZM34 59.5V67H26.5H19V59.5V52H26.5H34V59.5ZM50 59.5V67H42.5H35V59.5V52H42.5H50V59.5ZM65 59.5V67H58H51V59.5V52H58H65V59.5ZM81 59.5V67H73.5H66V59.5V52H73.5H81V59.5ZM96 59.5V67H89H82V59.5V52H89H96V59.5ZM112 59.5V67H104.5H97V59.5V52H104.5H112V59.5ZM127 59.5V67H120H113V59.5V52H120H127V59.5ZM143 59.5V67H135.5H128V59.5V52H135.5H143V59.5ZM159 59.5V67H151.5H144V59.5V52H151.5H159V59.5ZM174 59.5V67H167H160V59.5V52H167H174V59.5ZM190 59.5V67H182.5H175V59.5V52H182.5H190V59.5ZM205 59.5V67H198H191V59.5V52H198H205V59.5ZM34 75V82H26.5H19V75V68H26.5H34V75ZM50 75V82H42.5H35V75V68H42.5H50V75ZM65 75V82H58H51V75V68H58H65V75ZM81 75V82H73.5H66V75V68H73.5H81V75ZM96 75V82H89H82V75V68H89H96V75ZM112 75V82H104.5H97V75V68H104.5H112V75ZM127 75V82H120H113V75V68H120H127V75ZM143 75V82H135.5H128V75V68H135.5H143V75ZM159 75V82H151.5H144V75V68H151.5H159V75ZM174 75V82H167H160V75V68H167H174V75ZM190 75V82H182.5H175V75V68H182.5H190V75ZM205 75V82H198H191V75V68H198H205V75ZM34 90.5V98H26.5H19V90.5V83H26.5H34V90.5ZM50 90.5V98H42.5H35V90.5V83H42.5H50V90.5ZM65 90.5V98H58H51V90.5V83H58H65V90.5ZM81 90.5V98H73.5H66V90.5V83H73.5H81V90.5ZM96 90.5V98H89H82V90.5V83H89H96V90.5ZM112 90.5V98H104.5H97V90.5V83H104.5H112V90.5ZM127 90.5V98H120H113V90.5V83H120H127V90.5ZM143 90.5V98H135.5H128V90.5V83H135.5H143V90.5ZM159 90.5V98H151.5H144V90.5V83H151.5H159V90.5ZM174 90.5V98H167H160V90.5V83H167H174V90.5ZM190 90.5V98H182.5H175V90.5V83H182.5H190V90.5ZM205 90.5V98H198H191V90.5V83H198H205V90.5ZM34 106.5V114H26.5H19V106.5V99H26.5H34V106.5ZM50 106.5V114H42.5H35V106.5V99H42.5H50V106.5ZM65 106.5V114H58H51V106.5V99H58H65V106.5ZM81 106.5V114H73.5H66V106.5V99H73.5H81V106.5ZM96 106.5V114H89H82V106.5V99H89H96V106.5ZM112 106.5V114H104.5H97V106.5V99H104.5H112V106.5ZM127 106.5V114H120H113V106.5V99H120H127V106.5ZM143 106.5V114H135.5H128V106.5V99H135.5H143V106.5ZM159 106.5V114H151.5H144V106.5V99H151.5H159V106.5ZM174 106.5V114H167H160V106.5V99H167H174V106.5ZM190 106.5V114H182.5H175V106.5V99H182.5H190V106.5ZM205 106.5V114H198H191V106.5V99H198H205V106.5ZM34 122V129H26.5H19V122V115H26.5H34V122ZM50 122V129H42.5H35V122V115H42.5H50V122ZM65 122V129H58H51V122V115H58H65V122ZM81 122V129H73.5H66V122V115H73.5H81V122ZM96 122V129H89H82V122V115H89H96V122ZM112 122V129H104.5H97V122V115H104.5H112V122ZM127 122V129H120H113V122V115H120H127V122ZM143 122V129H135.5H128V122V115H135.5H143V122ZM159 122V129H151.5H144V122V115H151.5H159V122ZM174 122V129H167H160V122V115H167H174V122ZM190 122V129H182.5H175V122V115H182.5H190V122ZM205 122V129H198H191V122V115H198H205V122ZM34 137.5V145H26.5H19V137.5V130H26.5H34V137.5ZM50 137.5V145H42.5H35V137.5V130H42.5H50V137.5ZM65 137.5V145H58H51V137.5V130H58H65V137.5ZM81 137.5V145H73.5H66V137.5V130H73.5H81V137.5ZM96 137.5V145H89H82V137.5V130H89H96V137.5ZM112 137.5V145H104.5H97V137.5V130H104.5H112V137.5ZM127 137.5V145H120H113V137.5V130H120H127V137.5ZM143 137.5V145H135.5H128V137.5V130H135.5H143V137.5ZM159 137.5V145H151.5H144V137.5V130H151.5H159V137.5ZM174 137.5V145H167H160V137.5V130H167H174V137.5ZM190 137.5V145H182.5H175V137.5V130H182.5H190V137.5ZM205 137.5V145H198H191V137.5V130H198H205V137.5ZM34 153V160H26.5H19V153V146H26.5H34V153ZM50 153V160H42.5H35V153V146H42.5H50V153ZM65 153V160H58H51V153V146H58H65V153ZM81 153V160H73.5H66V153V146H73.5H81V153ZM96 153V160H89H82V153V146H89H96V153ZM112 153V160H104.5H97V153V146H104.5H112V153ZM127 153V160H120H113V153V146H120H127V153ZM143 153V160H135.5H128V153V146H135.5H143V153ZM159 153V160H151.5H144V153V146H151.5H159V153ZM174 153V160H167H160V153V146H167H174V153ZM190 153V160H182.5H175V153V146H182.5H190V153ZM205 153V160H198H191V153V146H198H205V153ZM34 168.5V176H26.5H19V168.5V161H26.5H34V168.5ZM50 168.5V176H42.5H35V168.5V161H42.5H50V168.5ZM65 168.5V176H58H51V168.5V161H58H65V168.5ZM81 168.5V176H73.5H66V168.5V161H73.5H81V168.5ZM96 168.5V176H89H82V168.5V161H89H96V168.5ZM112 168.5V176H104.5H97V168.5V161H104.5H112V168.5ZM127 168.5V176H120H113V168.5V161H120H127V168.5ZM143 168.5V176H135.5H128V168.5V161H135.5H143V168.5ZM159 168.5V176H151.5H144V168.5V161H151.5H159V168.5ZM174 168.5V176H167H160V168.5V161H167H174V168.5ZM190 168.5V176H182.5H175V168.5V161H182.5H190V168.5ZM205 168.5V176H198H191V168.5V161H198H205V168.5ZM34 184V191H26.5H19V184V177H26.5H34V184ZM50 184V191H42.5H35V184V177H42.5H50V184ZM65 184V191H58H51V184V177H58H65V184ZM81 184V191H73.5H66V184V177H73.5H81V184ZM96 184V191H89H82V184V177H89H96V184ZM112 184V191H104.5H97V184V177H104.5H112V184ZM127 184V191H120H113V184V177H120H127V184ZM143 184V191H135.5H128V184V177H135.5H143V184ZM159 184V191H151.5H144V184V177H151.5H159V184ZM174 184V191H167H160V184V177H167H174V184ZM190 184V191H182.5H175V184V177H182.5H190V184ZM205 184V191H198H191V184V177H198H205V184ZM34 199.5V207H26.5H19V199.5V192H26.5H34V199.5ZM50 199.5V207H42.5H35V199.5V192H42.5H50V199.5ZM65 199.5V207H58H51V199.5V192H58H65V199.5ZM81 199.5V207H73.5H66V199.5V192H73.5H81V199.5ZM96 199.5V207H89H82V199.5V192H89H96V199.5ZM112 199.5V207H104.5H97V199.5V192H104.5H112V199.5ZM127 199.5V207H120H113V199.5V192H120H127V199.5ZM143 199.5V207H135.5H128V199.5V192H135.5H143V199.5ZM159 199.5V207H151.5H144V199.5V192H151.5H159V199.5ZM174 199.5V207H167H160V199.5V192H167H174V199.5ZM190 199.5V207H182.5H175V199.5V192H182.5H190V199.5ZM205 199.5V207H198H191V199.5V192H198H205V199.5ZM34 215.5V223H26.5H19V215.5V208H26.5H34V215.5ZM50 215.5V223H42.5H35V215.5V208H42.5H50V215.5ZM65 215.5V223H58H51V215.5V208H58H65V215.5ZM81 215.5V223H73.5H66V215.5V208H73.5H81V215.5ZM96 215.5V223H89H82V215.5V208H89H96V215.5ZM112 215.5V223H104.5H97V215.5V208H104.5H112V215.5ZM127 215.5V223H120H113V215.5V208H120H127V215.5ZM143 215.5V223H135.5H128V215.5V208H135.5H143V215.5ZM159 215.5V223H151.5H144V215.5V208H151.5H159V215.5ZM174 215.5V223H167H160V215.5V208H167H174V215.5ZM190 215.5V223H182.5H175V215.5V208H182.5H190V215.5ZM205 215.5V223H198H191V215.5V208H198H205V215.5ZM34 231V238H26.5H19V231V224H26.5H34V231ZM50 231V238H42.5H35V231V224H42.5H50V231ZM65 231V238H58H51V231V224H58H65V231ZM81 231V238H73.5H66V231V224H73.5H81V231ZM96 231V238H89H82V231V224H89H96V231ZM112 231V238H104.5H97V231V224H104.5H112V231ZM127 231V238H120H113V231V224H120H127V231ZM143 231V238H135.5H128V231V224H135.5H143V231ZM159 231V238H151.5H144V231V224H151.5H159V231ZM174 231V238H167H160V231V224H167H174V231ZM190 231V238H182.5H175V231V224H182.5H190V231ZM205 231V238H198H191V231V224H198H205V231ZM34 246.5V254H26.5H19V246.5V239H26.5H34V246.5ZM50 246.5V254H42.5H35V246.5V239H42.5H50V246.5ZM65 246.5V254H58H51V246.5V239H58H65V246.5ZM81 246.5V254H73.5H66V246.5V239H73.5H81V246.5ZM96 246.5V254H89H82V246.5V239H89H96V246.5ZM112 246.5V254H104.5H97V246.5V239H104.5H112V246.5ZM127 246.5V254H120H113V246.5V239H120H127V246.5ZM143 246.5V254H135.5H128V246.5V239H135.5H143V246.5ZM159 246.5V254H151.5H144V246.5V239H151.5H159V246.5ZM174 246.5V254H167H160V246.5V239H167H174V246.5ZM190 246.5V254H182.5H175V246.5V239H182.5H190V246.5ZM205 246.5V254H198H191V246.5V239H198H205V246.5ZM34 262V269H26.5H19V262V255H26.5H34V262ZM50 262V269H42.5H35V262V255H42.5H50V262ZM65 262V269H58H51V262V255H58H65V262ZM81 262V269H73.5H66V262V255H73.5H81V262ZM96 262V269H89H82V262V255H89H96V262ZM112 262V269H104.5H97V262V255H104.5H112V262ZM127 262V269H120H113V262V255H120H127V262ZM143 262V269H135.5H128V262V255H135.5H143V262ZM159 262V269H151.5H144V262V255H151.5H159V262ZM174 262V269H167H160V262V255H167H174V262ZM190 262V269H182.5H175V262V255H182.5H190V262ZM205 262V269H198H191V262V255H198H205V262ZM34 277.5V285H26.5H19V277.5V270H26.5H34V277.5ZM50 277.5V285H42.5H35V277.5V270H42.5H50V277.5ZM65 277.5V285H58H51V277.5V270H58H65V277.5ZM81 277.5V285H73.5H66V277.5V270H73.5H81V277.5ZM96 277.5V285H89H82V277.5V270H89H96V277.5ZM112 277.5V285H104.5H97V277.5V270H104.5H112V277.5ZM127 277.5V285H120H113V277.5V270H120H127V277.5ZM143 277.5V285H135.5H128V277.5V270H135.5H143V277.5ZM159 277.5V285H151.5H144V277.5V270H151.5H159V277.5ZM174 277.5V285H167H160V277.5V270H167H174V277.5ZM190 277.5V285H182.5H175V277.5V270H182.5H190V277.5ZM205 277.5V285H198H191V277.5V270H198H205V277.5ZM34 293V300H26.5H19V293V286H26.5H34V293ZM50 293V300H42.5H35V293V286H42.5H50V293ZM65 293V300H58H51V293V286H58H65V293ZM81 293V300H73.5H66V293V286H73.5H81V293ZM96 293V300H89H82V293V286H89H96V293ZM112 293V300H104.5H97V293V286H104.5H112V293ZM127 293V300H120H113V293V286H120H127V293ZM143 293V300H135.5H128V293V286H135.5H143V293ZM159 293V300H151.5H144V293V286H151.5H159V293ZM174 293V300H167H160V293V286H167H174V293ZM190 293V300H182.5H175V293V286H182.5H190V293ZM205 293V300H198H191V293V286H198H205V293ZM34 308.5V316H26.5H19V308.5V301H26.5H34V308.5ZM50 308.5V316H42.5H35V308.5V301H42.5H50V308.5ZM65 308.5V316H58H51V308.5V301H58H65V308.5ZM81 308.5V316H73.5H66V308.5V301H73.5H81V308.5ZM96 308.5V316H89H82V308.5V301H89H96V308.5ZM112 308.5V316H104.5H97V308.5V301H104.5H112V308.5ZM127 308.5V316H120H113V308.5V301H120H127V308.5ZM143 308.5V316H135.5H128V308.5V301H135.5H143V308.5ZM159 308.5V316H151.5H144V308.5V301H151.5H159V308.5ZM174 308.5V316H167H160V308.5V301H167H174V308.5ZM190 308.5V316H182.5H175V308.5V301H182.5H190V308.5ZM205 308.5V316H198H191V308.5V301H198H205V308.5ZM34 324.5V332H26.5H19V324.5V317H26.5H34V324.5ZM50 324.5V332H42.5H35V324.5V317H42.5H50V324.5ZM65 324.5V332H58H51V324.5V317H58H65V324.5ZM81 324.5V332H73.5H66V324.5V317H73.5H81V324.5ZM96 324.5V332H89H82V324.5V317H89H96V324.5ZM112 324.5V332H104.5H97V324.5V317H104.5H112V324.5ZM127 324.5V332H120H113V324.5V317H120H127V324.5ZM143 324.5V332H135.5H128V324.5V317H135.5H143V324.5ZM159 324.5V332H151.5H144V324.5V317H151.5H159V324.5ZM174 324.5V332H167H160V324.5V317H167H174V324.5ZM190 324.5V332H182.5H175V324.5V317H182.5H190V324.5ZM205 324.5V332H198H191V324.5V317H198H205V324.5ZM34 340V347H26.5H19V340V333H26.5H34V340ZM50 340V347H42.5H35V340V333H42.5H50V340ZM65 340V347H58H51V340V333H58H65V340ZM81 340V347H73.5H66V340V333H73.5H81V340ZM96 340V347H89H82V340V333H89H96V340ZM112 340V347H104.5H97V340V333H104.5H112V340ZM127 340V347H120H113V340V333H120H127V340ZM143 340V347H135.5H128V340V333H135.5H143V340ZM159 340V347H151.5H144V340V333H151.5H159V340ZM174 340V347H167H160V340V333H167H174V340ZM190 340V347H182.5H175V340V333H182.5H190V340ZM205 340V347H198H191V340V333H198H205V340ZM34 355.5V363H26.5H19V355.5V348H26.5H34V355.5ZM50 355.5V363H42.5H35V355.5V348H42.5H50V355.5ZM65 355.5V363H58H51V355.5V348H58H65V355.5ZM81 355.5V363H73.5H66V355.5V348H73.5H81V355.5ZM96 355.5V363H89H82V355.5V348H89H96V355.5ZM112 355.5V363H104.5H97V355.5V348H104.5H112V355.5ZM127 355.5V363H120H113V355.5V348H120H127V355.5ZM143 355.5V363H135.5H128V355.5V348H135.5H143V355.5ZM159 355.5V363H151.5H144V355.5V348H151.5H159V355.5ZM34 371V378H26.5H19V371V364H26.5H34V371ZM50 371V378H42.5H35V371V364H42.5H50V371ZM65 371V378H58H51V371V364H58H65V371ZM81 371V378H73.5H66V371V364H73.5H81V371ZM96 371V378H89H82V371V364H89H96V371ZM112 371V378H104.5H97V371V364H104.5H112V371ZM34 386.5V394H26.5H19V386.5V379H26.5H34V386.5ZM50 386.5V394H42.5H35V386.5V379H42.5H50V386.5ZM65 386.5V394H58H51V386.5V379H58H65V386.5ZM81 386.5V394H73.5H66V386.5V379H73.5H81V386.5ZM34 402V409H26.5H19V402V395H26.5H34V402ZM50 402V409H42.5H35V402V395H42.5H50V402ZM65 402V409H58H51V402V395H58H65V402ZM34 417.5V425H26.5H19V417.5V410H26.5H34V417.5ZM50 417.5V425H42.5H35V417.5V410H42.5H50V417.5ZM34 433.5V441H26.5H19V433.5V426H26.5H34V433.5Z" fill="#4040C1"/>
<path d="M2.2 478C2.2 479.9 2.4 480.7 2.7 479.7C2.9 478.8 2.9 477.2 2.7 476.2C2.4 475.3 2.2 476.1 2.2 478Z" fill="#4040C1"/>
<path d="M4.6 487.8C4.3 488.3 5.4 488.4 7.1 488.2C8.7 488 10 487.6 10 487.4C10 486.6 5.1 487 4.6 487.8Z" fill="#4040C1"/>
<path d="M205.1 361.8C205 362.7 201.8 363 192 362.8C184.8 362.8 178.7 363 178.3 363.3C178 363.7 180.4 364 183.8 364H190V371V378H182.5H175.1L174.7 370.7L174.4 363.5L174.2 370.7L174 378H167H160.1L159.7 372.2L159.4 366.5L159.2 372.2L159 378H151.6H144.1L143.7 374.7L143.3 371.5L143.2 374.8L143 378.1L134.5 377.9C129.8 377.8 125.7 378 125.3 378.4C125 378.7 125.2 379 125.8 379C126.6 379 127 381.5 127 386.5V394H120.1H113.1L112.7 388.7L112.4 383.5L112.2 388.7L112 394H103.8H95.5L95.8 401.5L96.2 409H89.1C82.2 409 82 408.9 82 406.5C82 403.9 80.6 403.2 79.4 405.2C79 405.9 79.1 406 79.8 405.6C80.6 405.1 81 405.7 81 407.1C81 408.9 80.6 409.2 78 408.8C76.3 408.5 74.7 408.7 74.4 409.2C74.1 409.6 75.5 410 77.4 410H81V417.5V425H73.6H66.1L65.7 420.7L65.3 416.5L65.2 420.7C65 424.9 65 425 61.3 425H57.7L59.6 422.7L61.5 420.5L59.3 422.4C56 425.1 56.4 426 61 426H65V433.5V441H58.1H51.1L50.7 436.2L50.4 431.5L50.2 436.2L50 440.9L45.8 441.3L41.5 441.7L45.8 441.8L50 442V449V456H42.6C35.2 456 35.1 456 34.7 453.2L34.3 450.5L34.1 453.2C34 455.3 33.5 456 32.1 456C31 456 29.9 456.4 29.6 456.9C29.3 457.3 30.2 457.5 31.5 457.2C34 456.8 34 456.8 34 464.3V471.9L26.8 472.3L19.5 472.6L26.8 472.8L34 473V480V487H26.5H19V480.3C19 476.7 18.7 474 18.3 474.3C18 474.7 17.8 477.7 17.9 480.9L18.1 486.9L14.3 487.3L10.5 487.7L14.2 487.8L17.9 488L18.3 494.7L18.6 501.5L18.8 494.7L19 488H26.5H33.9L34.3 494.7L34.6 501.5L34.8 494.7L35 488H42.5H49.9L50.3 494.7L50.6 501.5L50.8 494.7L51 488H58H64.9L65.3 494.7L65.6 501.5L65.8 494.7L66 488H73.5H80.9L81.3 494.7L81.6 501.5L81.8 494.7L82 488H89H95.9L96.3 494.7L96.6 501.5L96.8 494.7L97 488H104.5H111.9L112.3 494.8L112.6 501.5L112.8 494.7L113 488H120H126.9L127.3 494.7L127.6 501.5L127.8 494.7L128 488H135.5H142.9L143.3 494.7L143.6 501.5L143.8 494.7L144 488H151.5H158.9L159.3 494.7L159.6 501.5L159.8 494.7L160 488H167H173.9L174.3 494.7L174.6 501.5L174.8 494.7L175 488H182.5H189.9L190.3 494.7L190.6 501.5L190.8 494.7L191 488H197.9H204.9L205.2 491.6C205.5 494.9 205.6 495 207.5 493.5C209.1 492.3 209.2 492.1 207.8 492.6C206.4 493.1 206 492.6 206 490.5C206 488.1 206.3 487.8 208.5 488.2C209.9 488.5 211 488.3 211 487.9C211 487.4 209.9 487 208.5 487C206.1 487 206 486.8 206 480V473H209.4C211.3 473 213.1 472.7 213.4 472.2C213.6 471.8 212.1 471.6 209.9 471.8L206 472.2V464.6V457H209.4C211.3 457 213.1 457.6 213.3 458.2C213.6 458.9 213.9 458.6 213.9 457.5C214 455.7 213.5 455.5 210 455.8L206 456.2V449.1V442H209.4C211.3 442 213.1 442.5 213.3 443C213.6 443.6 213.7 443.5 213.6 442.8C213.5 442.1 211.7 441.4 209.7 441.2L206 440.9V433.4V426H209.4C211.3 426 213.1 426.5 213.3 427C213.6 427.6 213.7 427.5 213.6 426.8C213.5 426.1 211.7 425.4 209.7 425.2L206 424.9V417.3V409.8L209.5 410.2C211.4 410.4 213.1 410.1 213.3 409.5C213.6 408.9 212.3 408.6 209.9 408.8L206 409.2V402.1V395H208.8C210.3 395 212.2 395.6 212.9 396.2C214 397.3 214.2 397.2 213.8 396C213.5 395.1 211.9 394.4 209.7 394.2L206 393.9V386.4V379H209.4C212.2 379 212.9 379.4 213.3 381.2C213.6 382.8 213.7 382.6 213.7 380.5C213.6 377.6 213.4 377.5 209.8 377.8L206 378.2V371V363.8L210 364.2C212.2 364.4 214 364.2 214 363.8C214 363.3 212.2 363 210.1 363C207.9 363 205.9 362.5 205.7 361.7C205.3 360.8 205.1 360.8 205.1 361.8ZM205 371V378H198H191V371V364H198H205V371ZM143 386.5V394H135.5H128V386.5V379H135.5H143V386.5ZM159 386.5V394H151.5H144V386.5V379H151.5H159V386.5ZM174 386.5V394H167H160V386.5V379H167H174V386.5ZM190 386.5V394H182.5H175V386.5V379H182.5H190V386.5ZM205 386.5V394H198H191V386.5V379H198H205V386.5ZM112 402V409H104.5H97V402V395H104.5H112V402ZM127 402V409H120H113V402V395H120H127V402ZM143 402V409H135.5H128V402V395H135.5H143V402ZM159 402V409H151.5H144V402V395H151.5H159V402ZM174 402V409H167H160V402V395H167H174V402ZM190 402V409H182.5H175V402V395H182.5H190V402ZM205 402V409H198H191V402V395H198H205V402ZM96 417.5V425H89H82V417.5V410H89H96V417.5ZM112 417.5V425H104.5H97V417.5V410H104.5H112V417.5ZM127 417.5V425H120H113V417.5V410H120H127V417.5ZM143 417.5V425H135.5H128V417.5V410H135.5H143V417.5ZM159 417.5V425H151.5H144V417.5V410H151.5H159V417.5ZM174 417.5V425H167H160V417.5V410H167H174V417.5ZM190 417.5V425H182.5H175V417.5V410H182.5H190V417.5ZM205 417.5V425H198H191V417.5V410H198H205V417.5ZM81 433.5V441H73.5H66V433.5V426H73.5H81V433.5ZM96 433.5V441H89H82V433.5V426H89H96V433.5ZM112 433.5V441H104.5H97V433.5V426H104.5H112V433.5ZM127 433.5V441H120H113V433.5V426H120H127V433.5ZM143 433.5V441H135.5H128V433.5V426H135.5H143V433.5ZM159 433.5V441H151.5H144V433.5V426H151.5H159V433.5ZM174 433.5V441H167H160V433.5V426H167H174V433.5ZM190 433.5V441H182.5H175V433.5V426H182.5H190V433.5ZM205 433.5V441H198H191V433.5V426H198H205V433.5ZM65 449V456H58H51V449V442H58H65V449ZM81 449V456H73.5H66V449V442H73.5H81V449ZM96 449V456H89H82V449V442H89H96V449ZM112 449V456H104.5H97V449V442H104.5H112V449ZM127 449V456H120H113V449V442H120H127V449ZM143 449V456H135.5H128V449V442H135.5H143V449ZM159 449V456H151.5H144V449V442H151.5H159V449ZM174 449V456H167H160V449V442H167H174V449ZM190 449V456H182.5H175V449V442H182.5H190V449ZM205 449V456H198H191V449V442H198H205V449ZM50 464.5V472H42.5H35V464.5V457H42.5H50V464.5ZM65 464.5V472H58H51V464.5V457H58H65V464.5ZM81 464.5V472H73.5H66V464.5V457H73.5H81V464.5ZM96 464.5V472H89H82V464.5V457H89H96V464.5ZM112 464.5V472H104.5H97V464.5V457H104.5H112V464.5ZM127 464.5V472H120H113V464.5V457H120H127V464.5ZM143 464.5V472H135.5H128V464.5V457H135.5H143V464.5ZM159 464.5V472H151.5H144V464.5V457H151.5H159V464.5ZM174 464.5V472H167H160V464.5V457H167H174V464.5ZM190 464.5V472H182.5H175V464.5V457H182.5H190V464.5ZM205 464.5V472H198H191V464.5V457H198H205V464.5ZM50 480V487H42.5H35V480V473H42.5H50V480ZM65 480V487H58H51V480V473H58H65V480ZM81 480V487H73.5H66V480V473H73.5H81V480ZM96 480V487H89H82V480V473H89H96V480ZM112 480V487H104.5H97V480V473H104.5H112V480ZM127 480V487H120H113V480V473H120H127V480ZM143 480V487H135.5H128V480V473H135.5H143V480ZM159 480V487H151.5H144V480V473H151.5H159V480ZM174 480V487H167H160V480V473H167H174V480ZM190 480V487H182.5H175V480V473H182.5H190V480ZM205 480V487H198H191V480V473H198H205V480Z" fill="#6BC1C1"/>
<path d="M213.2 420C213.2 421.9 213.4 422.7 213.7 421.7C213.9 420.8 213.9 419.2 213.7 418.2C213.4 417.3 213.2 418.1 213.2 420Z" fill="#6BC1C1"/>
<path d="M213.2 437C213.2 438.9 213.4 439.7 213.7 438.7C213.9 437.8 213.9 436.2 213.7 435.2C213.4 434.3 213.2 435.1 213.2 437Z" fill="#6BC1C1"/>
<path d="M230.3 3.70001C231.8 3.90001 234 3.90001 235.3 3.70001C236.5 3.50001 235.3 3.30001 232.5 3.30001C229.8 3.30001 228.7 3.50001 230.3 3.70001Z" fill="#966BEC"/>
<path d="M247.3 3.70001C248.8 3.90001 251 3.90001 252.3 3.70001C253.5 3.50001 252.3 3.30001 249.5 3.30001C246.8 3.30001 245.7 3.50001 247.3 3.70001Z" fill="#966BEC"/>
<path d="M241 4.7L213.5 5L213.7 182.1C213.8 279.5 214.2 359.5 214.5 359.9C215.5 360.8 272.2 360.6 274.5 359.6C275.6 359.1 278.4 358.8 280.8 358.9C283.1 359.1 285 358.8 285 358.3C285 357.9 287.8 357.4 291.1 357.3C294.5 357.2 297.8 356.6 298.4 356C299.1 355.5 299.9 355.3 300.2 355.6C301.1 356.4 314 353.8 314 352.8C314 352.3 314.5 352.2 315 352.5C315.6 352.8 316.5 352.8 317.2 352.4C317.9 352 319.8 351.5 321.4 351.3C323.1 351.1 324.6 350.6 324.9 350.1C325.7 349 332.8 346.7 333.8 347.4C335.6 348.5 367.8 335.2 366.5 333.9C366.3 333.6 366.9 333.4 367.9 333.3C373.8 332.8 410 305.3 410 301.3C410 300.6 410.3 300.1 410.8 300.2C412.4 300.8 425 285 431.9 273.6C440.5 259.6 452.3 227.8 450.6 223.4C450.3 222.6 450.4 222 450.9 222C452.3 222 454 211.1 454.9 196.4C455.9 179.8 454.8 152.8 453.1 152.2C452.5 152 452 151.1 452 150.2C452 148.7 452.2 148.7 453.1 150C454 151.2 454.1 151.2 453.6 149.7C453.3 148.7 453 146.6 453 145.2C453 143.1 452.8 142.8 452 144C451.3 145.1 451.2 144.6 451.6 142.2C452.1 140 451.9 139 451 139C450.2 139 450 138.1 450.4 136.4C450.9 134.5 450.8 134 449.9 134.6C449 135.1 448.9 134.8 449.4 133.5C450.3 131.1 448 121.9 446.7 122.7C446.1 123.1 445.9 122.4 446.2 121.2C446.6 119.8 446.4 119.2 445.8 119.6C445.2 120 445 119.4 445.5 118C446 116.3 445.9 115.9 445 116.5C444.1 117 443.9 116.9 444.4 116.1C445.3 114.7 443.2 109 441.9 109C441.4 109 441.3 108.3 441.6 107.5C442 106.7 441.7 106 441.1 106C440.5 106 440.1 105.7 440.2 105.2C440.6 104 435.8 93 435 93.5C434.1 94.1 429.9 86.5 430.7 85.6C431 85.3 430.8 85 430.1 85C429.4 85 429.1 84.6 429.4 84.1C430.1 83 425.5 76.8 424.7 77.7C424.3 78 424 77.6 424 76.6C424 75.5 423.6 75.2 422.8 75.6C422 76.1 421.9 75.8 422.3 74.7C422.6 73.8 422.4 72.8 421.8 72.4C421.1 71.9 421 72.2 421.5 73.1C422.4 74.7 421.7 73.9 418 69.5C415.9 67 415.9 66.8 417.6 68C418.7 68.8 417.2 67.1 414.1 64.1C411 61.1 409.4 59.3 410.5 60.1C412.5 61.4 412.5 61.4 410.6 59.3C409.6 58.1 408.4 57.2 407.9 57.3C407.5 57.4 405.2 55.4 402.8 52.9C400.4 50.4 399.2 49.3 400 50.4C401.7 52.8 396 48.1 392.1 44C390.8 42.6 390.1 42.1 390.5 42.9C391 43.8 390.4 43.7 388.6 42.5C386.1 40.8 384.8 39.1 387.2 40.6C387.9 41 388 40.9 387.6 40.2C387.2 39.6 386.3 39.3 385.6 39.6C384.8 39.9 383.9 39.6 383.4 38.9C382.9 38.1 383.1 37.9 384 38.5C384.9 39.1 385.1 38.9 384.6 38.1C384.1 37.4 383.1 37.1 382.3 37.4C381.5 37.7 381.2 37.5 381.5 37C381.8 36.5 380.4 35.2 378.3 34.1C374.5 32.2 373.9 32 371.9 32C371.4 32 371.2 31.6 371.5 31C371.9 30.4 371.4 30.3 370.4 30.7C369.1 31.2 368.9 31 369.5 30C370 29.2 369.9 28.9 369.2 29.3C367.9 30.2 364.8 29.1 365.5 28C366 27.2 363.1 25.8 360.5 25.5C357.5 25.2 354.1 23.7 354.6 22.9C354.9 22.4 354.4 22.3 353.6 22.6C352.7 22.9 352 22.7 352 22.1C352 21.5 351.3 21.3 350.3 21.7C349.1 22.2 348.9 22 349.5 21C350.1 20 349.9 19.8 348.7 20.3C347.8 20.6 347 20.6 346.8 20.2C346.6 19.8 344.6 18.7 342.2 17.8C339.9 16.9 338.2 16.5 338.5 17C338.8 17.4 338.1 17.6 337 17.3C335.9 17 335.3 16.3 335.7 15.7C336.1 15.1 335.8 15 335 15.5C334.3 15.9 333.5 15.8 333.1 15.3C332.8 14.7 331.4 14 330 13.6C328 13 327.8 13.1 329 14C330.3 15 330.2 15.1 328.7 14.6C327.7 14.3 326.4 14 325.9 14C325.3 14 325.2 13.5 325.6 12.8C326.1 12 325.8 11.9 324.5 12.4C322 13.3 315.9 12 316.7 10.7C317.1 10.1 316.5 9.9 315.1 10.3C312.7 10.9 300 9.1 300 8.1C300 7.7 298.1 7.6 295.8 7.8C292.4 8 291.8 7.9 293 7C294.1 6.2 293.2 6 289.1 6.6C285.7 7 284 6.9 284.3 6.2C284.7 5.6 282.4 5.5 278.1 5.8C273.6 6.1 271 5.9 270.6 5.1C270.2 4.5 269.6 4.1 269.2 4.2C268.8 4.4 256.1 4.6 241 4.7Z" fill="#966BEC"/>
<path d="M194 362C191.2 362.6 191.9 362.8 197.8 362.9C202 362.9 205 362.6 205 362C205 360.9 199.3 360.9 194 362Z" fill="#6BC1EC"/>
<path d="M206 362C206 362.5 207.9 363 210.3 363C213.4 363 214.1 362.7 213 362C211 360.7 206 360.7 206 362Z" fill="#6BC1EC"/>
<path d="M168.5 365.1C159.3 367.2 160 366.5 160 372.5V378H167H174V371C174 367.1 173.7 364 173.3 364.1C172.8 364.2 170.7 364.6 168.5 365.1Z" fill="#6BC1EC"/>
<path d="M175 371V378H182.5H190V371V364H182.5H175V371Z" fill="#6BC1EC"/>
<path d="M191 371V378H198H205V371V364H198H191V371Z" fill="#6BC1EC"/>
<path d="M206 371V378.1L209.7 377.8L213.3 377.5L213.4 371L213.5 364.5L209.8 364.2L206 363.9V371Z" fill="#6BC1EC"/>
<path d="M151.3 369.2C144.1 371.3 144 371.3 144 374.7V378H151.5H159V372.5C159 369.5 158.9 367 158.8 367.1C158.6 367.1 155.2 368.1 151.3 369.2Z" fill="#6BC1EC"/>
<path d="M135 374.6C131.4 376 128.3 377.3 128.1 377.6C127.9 377.8 131.1 378 135.3 378H143V375C143 371.5 143.2 371.5 135 374.6Z" fill="#6BC1EC"/>
<path d="M118.3 381.8C113 384.4 113 384.4 113 389.2V394H120H127V386.5C127 377.7 126.6 377.5 118.3 381.8Z" fill="#6BC1EC"/>
<path d="M128 386.5V394H135.5H143V386.5V379H135.5H128V386.5Z" fill="#6BC1EC"/>
<path d="M144 386.5V394H151.5H159V386.5V379H151.5H144V386.5Z" fill="#6BC1EC"/>
<path d="M160 386.5V394H167H174V386.5V379H167H160V386.5Z" fill="#6BC1EC"/>
<path d="M175 386.5V394H182.5H190V386.5V379H182.5H175V386.5Z" fill="#6BC1EC"/>
<path d="M191 386.5V394H198H205V386.5V379H198H191V386.5Z" fill="#6BC1EC"/>
<path d="M206 386.5V394H209.9H213.9L213.5 388.2C213.3 385.1 213.1 381.7 213.1 380.7C213 379.4 212.1 379 209.5 379H206V386.5Z" fill="#6BC1EC"/>
<path d="M104.1 389.3L96.8 393.5L104 393.8C108 394 111.4 393.9 111.7 393.7C111.9 393.4 112 391.4 111.8 389.1L111.5 385L104.1 389.3Z" fill="#6BC1EC"/>
<path d="M88.2 399.2C83.1 402.7 82 404 82 406.2C82 409 82 409 89 409H96V402C96 398.1 95.6 395 95.2 395C94.8 395 91.6 396.9 88.2 399.2Z" fill="#6BC1EC"/>
<path d="M97 402V409H104.5H112V402V395H104.5H97V402Z" fill="#6BC1EC"/>
<path d="M113 402V409H120H127V402V395H120H113V402Z" fill="#6BC1EC"/>
<path d="M128 402V409H135.5H143V402V395H135.5H128V402Z" fill="#6BC1EC"/>
<path d="M144 402V409H151.5H159V402V395H151.5H144V402Z" fill="#6BC1EC"/>
<path d="M160 402V409H167H174V402V395H167H160V402Z" fill="#6BC1EC"/>
<path d="M175 402V409H182.5H190V402V395H182.5H175V402Z" fill="#6BC1EC"/>
<path d="M191 402V409H198H205V402V395H198H191V402Z" fill="#6BC1EC"/>
<path d="M206 402V409H209.5C212.6 409 213 408.7 213.2 406.2C213.9 396.4 213.3 395 208.9 395H206V402Z" fill="#6BC1EC"/>
<path d="M77.9 407L75.5 408.9L78.3 409C80.3 409 81 408.5 81 407C81 404.5 80.8 404.5 77.9 407Z" fill="#6BC1EC"/>
<path d="M69.8 413.5C66.6 416.4 66 417.7 66 421V425H73.5H81V417.5V410H77.3C74.4 410 72.6 410.9 69.8 413.5Z" fill="#6BC1EC"/>
<path d="M82 417.5V425H89H96V417.5V410H89H82V417.5Z" fill="#6BC1EC"/>
<path d="M97 417.5V425H104.5H112V417.5V410H104.5H97V417.5Z" fill="#6BC1EC"/>
<path d="M113 417.5V425H120H127V417.5V410H120H113V417.5Z" fill="#6BC1EC"/>
<path d="M128 417.5V425H135.5H143V417.5V410H135.5H128V417.5Z" fill="#6BC1EC"/>
<path d="M144 417.5V425H151.5H159V417.5V410H151.5H144V417.5Z" fill="#6BC1EC"/>
<path d="M160 417.5V425H167H174V417.5V410H167H160V417.5Z" fill="#6BC1EC"/>
<path d="M175 417.5V425H182.5H190V417.5V410H182.5H175V417.5Z" fill="#6BC1EC"/>
<path d="M191 417.5V425H198H205V417.5V410H198H191V417.5Z" fill="#6BC1EC"/>
<path d="M206 417.5V425H209.8H213.5V418.2C213.5 411 213 410 208.8 410H206V417.5Z" fill="#6BC1EC"/>
<path d="M61 421.5L57.6 425H61.3C64.9 425 65 424.9 65 421.5C65 419.6 64.9 418 64.7 418C64.5 418 62.9 419.6 61 421.5Z" fill="#6BC1EC"/>
<path d="M53.7 428.8C51.6 431 51 432.6 51 436.3V441H58H65V433.5V426H60.7C57.3 426 55.8 426.6 53.7 428.8Z" fill="#6BC1EC"/>
<path d="M66 433.5V441H73.5H81V433.5V426H73.5H66V433.5Z" fill="#6BC1EC"/>
<path d="M82 433.5V441H89H96V433.5V426H89H82V433.5Z" fill="#6BC1EC"/>
<path d="M97 433.5V441H104.5H112V433.5V426H104.5H97V433.5Z" fill="#6BC1EC"/>
<path d="M113 433.5V441H120H127V433.5V426H120H113V433.5Z" fill="#6BC1EC"/>
<path d="M128 433.5V441H135.5H143V433.5V426H135.5H128V433.5Z" fill="#6BC1EC"/>
<path d="M144 433.5V441H151.5H159V433.5V426H151.5H144V433.5Z" fill="#6BC1EC"/>
<path d="M160 433.5V441H167H174V433.5V426H167H160V433.5Z" fill="#6BC1EC"/>
<path d="M175 433.5V441H182.5H190V433.5V426H182.5H175V433.5Z" fill="#6BC1EC"/>
<path d="M191 433.5V441H198H205V433.5V426H198H191V433.5Z" fill="#6BC1EC"/>
<path d="M206 433.5V441H209.8H213.5L213.4 434.7C213.3 431.3 213.2 427.9 213.1 427.2C213 426.5 211.6 426 209.5 426H206V433.5Z" fill="#6BC1EC"/>
<path d="M46 437L42.8 441H46.4C49.9 441 50 440.9 50 437C50 434.8 49.8 433 49.6 433C49.4 433 47.7 434.8 46 437Z" fill="#6BC1EC"/>
<path d="M38.2 446.2C36.3 448.6 35 451.5 35 453.2V456H42.5H50V449V442H45.7C41.9 442 41.1 442.4 38.2 446.2Z" fill="#6BC1EC"/>
<path d="M51 449V456H58H65V449V442H58H51V449Z" fill="#6BC1EC"/>
<path d="M66 449V456H73.5H81V449V442H73.5H66V449Z" fill="#6BC1EC"/>
<path d="M82 449V456H89H96V449V442H89H82V449Z" fill="#6BC1EC"/>
<path d="M97 449V456H104.5H112V449V442H104.5H97V449Z" fill="#6BC1EC"/>
<path d="M113 449V456H120H127V449V442H120H113V449Z" fill="#6BC1EC"/>
<path d="M128 449V456H135.5H143V449V442H135.5H128V449Z" fill="#6BC1EC"/>
<path d="M144 449V456H151.5H159V449V442H151.5H144V449Z" fill="#6BC1EC"/>
<path d="M160 449V456H167H174V449V442H167H160V449Z" fill="#6BC1EC"/>
<path d="M175 449V456H182.5H190V449V442H182.5H175V449Z" fill="#6BC1EC"/>
<path d="M191 449V456H198H205V449V442H198H191V449Z" fill="#6BC1EC"/>
<path d="M206 449.1V456.1L209.8 455.8L213.5 455.5L213.6 450C213.8 442.7 213.4 442 209.4 442H206V449.1Z" fill="#6BC1EC"/>
<path d="M32.2 454C31.2 455.7 31.2 456 32.5 456C33.3 456 34 455.1 34 454C34 452.9 33.9 452 33.7 452C33.6 452 32.9 452.9 32.2 454Z" fill="#6BC1EC"/>
<path d="M26.7 461.6C25 464.1 22.7 467.5 21.7 469.1L19.8 472H26.9H34V464.5C34 457.6 33.8 457 32 457C30.7 457 28.7 458.7 26.7 461.6Z" fill="#6BC1EC"/>
<path d="M35 464.5V472H42.5H50V464.5V457H42.5H35V464.5Z" fill="#6BC1EC"/>
<path d="M51 464.5V472H58H65V464.5V457H58H51V464.5Z" fill="#6BC1EC"/>
<path d="M66 464.5V472H73.5H81V464.5V457H73.5H66V464.5Z" fill="#6BC1EC"/>
<path d="M82 464.5V472H89H96V464.5V457H89H82V464.5Z" fill="#6BC1EC"/>
<path d="M97 464.5V472H104.5H112V464.5V457H104.5H97V464.5Z" fill="#6BC1EC"/>
<path d="M113 464.5V472H120H127V464.5V457H120H113V464.5Z" fill="#6BC1EC"/>
<path d="M128 464.5V472H135.5H143V464.5V457H135.5H128V464.5Z" fill="#6BC1EC"/>
<path d="M144 464.5V472H151.5H159V464.5V457H151.5H144V464.5Z" fill="#6BC1EC"/>
<path d="M160 464.5V472H167H174V464.5V457H167H160V464.5Z" fill="#6BC1EC"/>
<path d="M175 464.5V472H182.5H190V464.5V457H182.5H175V464.5Z" fill="#6BC1EC"/>
<path d="M191 464.5V472H198H205V464.5V457H198H191V464.5Z" fill="#6BC1EC"/>
<path d="M206 464.6V472.1L209.8 471.8L213.5 471.5L213.6 465.5C213.8 457.7 213.4 457 209.4 457H206V464.6Z" fill="#6BC1EC"/>
<path d="M19 480V487H26.5H34V480V473H26.5H19V480Z" fill="#6BC1EC"/>
<path d="M35 480V487H42.5H50V480V473H42.5H35V480Z" fill="#6BC1EC"/>
<path d="M51 480V487H58H65V480V473H58H51V480Z" fill="#6BC1EC"/>
<path d="M66 480V487H73.5H81V480V473H73.5H66V480Z" fill="#6BC1EC"/>
<path d="M82 480V487H89H96V480V473H89H82V480Z" fill="#6BC1EC"/>
<path d="M97 480V487H104.5H112V480V473H104.5H97V480Z" fill="#6BC1EC"/>
<path d="M113 480V487H120H127V480V473H120H113V480Z" fill="#6BC1EC"/>
<path d="M128 480V487H135.5H143V480V473H135.5H128V480Z" fill="#6BC1EC"/>
<path d="M144 480V487H151.5H159V480V473H151.5H144V480Z" fill="#6BC1EC"/>
<path d="M160 480V487H167H174V480V473H167H160V480Z" fill="#6BC1EC"/>
<path d="M175 480V487H182.5H190V480V473H182.5H175V480Z" fill="#6BC1EC"/>
<path d="M191 480V487H198H205V480V473H198H191V480Z" fill="#6BC1EC"/>
<path d="M206 480V487H209.1C211.7 487 212.2 486.7 211.7 485C211.4 483.8 211.6 483.2 212.2 483.6C212.8 484 213 483.2 212.9 481.9C212.7 480.6 212.9 479 213.2 478.4C213.6 477.8 213.6 476.4 213.3 475.2C212.9 473.5 212 473 209.4 473H206V480Z" fill="#6BC1EC"/>
<path d="M14.3 481.5L11.1 487H14.6H18V481.5C18 478.5 17.9 476 17.7 476C17.6 476 16 478.5 14.3 481.5Z" fill="#6BC1EC"/>
<path d="M9.2 490.5C8.5 491.9 8 493.7 8 494.4C8 496 12.4 500.2 13.2 499.4C13.6 499.1 14.8 499.3 15.9 500C17.9 501 18 500.8 18 494.5V488H14.2C11 488 10.1 488.5 9.2 490.5Z" fill="#6BC1EC"/>
<path d="M19 494.5V501H26.5H34V494.5V488H26.5H19V494.5Z" fill="#6BC1EC"/>
<path d="M35 494.5V501H42.5H50V494.5V488H42.5H35V494.5Z" fill="#6BC1EC"/>
<path d="M51 494.5V501H58H65V494.5V488H58H51V494.5Z" fill="#6BC1EC"/>
<path d="M66 494.5V501H73.5H81V494.5V488H73.5H66V494.5Z" fill="#6BC1EC"/>
<path d="M82 494.5V501H89H96V494.5V488H89H82V494.5Z" fill="#6BC1EC"/>
<path d="M97 494.5V501H104.5H112V494.5V488H104.5H97V494.5Z" fill="#6BC1EC"/>
<path d="M113 494.5V501H120H127V494.5V488H120H113V494.5Z" fill="#6BC1EC"/>
<path d="M128 494.5V501H135.5H143V494.5V488H135.5H128V494.5Z" fill="#6BC1EC"/>
<path d="M144 494.5V501H151.5H159V494.5V488H151.5H144V494.5Z" fill="#6BC1EC"/>
<path d="M160 494.5V501H167H174V494.5V488H167H160V494.5Z" fill="#6BC1EC"/>
<path d="M175 494.5V501H182.5H190V494.5V488H182.5H175V494.5Z" fill="#6BC1EC"/>
<path d="M191 494.5V501H194.8C197.5 501 199.9 500.1 202.8 498C205.1 496.3 207 494.7 207 494.4C207 494.1 206.6 494.2 206 494.5C205.4 494.9 205 493.7 205 491.6V488H198H191V494.5Z" fill="#6BC1EC"/>
<path d="M206 490.6C206 492.2 206.5 493 207.3 492.7C207.9 492.5 208.4 491.7 208.3 491.1C208.1 490.5 208.5 490 209.1 490C209.6 490 209.8 489.5 209.5 489C208.3 487 206 488 206 490.6Z" fill="#6BC1EC"/>
</g>
<defs>
<clipPath id="clip0_188_3">
<rect width="456" height="501" fill="white"/>
</clipPath>
</defs>
</svg>
